<?xml version="1.0" encoding="utf-8"?>
<!-- Generator: Adobe Illustrator 24.0.0, SVG Export Plug-In . SVG Version: 6.00 Build 0)  -->
<svg version="1.1" id="图层_1" xmlns="http://www.w3.org/2000/svg" xmlns:xlink="http://www.w3.org/1999/xlink" x="0px" y="0px"
	 viewBox="0 0 237.7 81.8" style="enable-background:new 0 0 237.7 81.8;" xml:space="preserve">
<style type="text/css">
	.st0{fill:url(#SVGID_1_);}
	.st1{fill:#007BFD;}
	.st2{fill:#6C707C;}
	.st3{fill-rule:evenodd;clip-rule:evenodd;fill:#007BFD;}
</style>
<linearGradient id="SVGID_1_" gradientUnits="userSpaceOnUse" x1="23.6727" y1="51.6692" x2="46.9209" y2="28.3602">
	<stop  offset="0" style="stop-color:#001710"/>
	<stop  offset="1.919607e-03" style="stop-color:#001813"/>
	<stop  offset="3.870384e-02" style="stop-color:#002D44"/>
	<stop  offset="7.747146e-02" style="stop-color:#003F6F"/>
	<stop  offset="0.1191" style="stop-color:#004F95"/>
	<stop  offset="0.1634" style="stop-color:#005DB5"/>
	<stop  offset="0.2109" style="stop-color:#0068D0"/>
	<stop  offset="0.263" style="stop-color:#0070E4"/>
	<stop  offset="0.322" style="stop-color:#0076F2"/>
	<stop  offset="0.3937" style="stop-color:#007AFA"/>
	<stop  offset="0.514" style="stop-color:#007BFD"/>
	<stop  offset="0.568" style="stop-color:#0079F8"/>
	<stop  offset="0.6285" style="stop-color:#0072EB"/>
	<stop  offset="0.6921" style="stop-color:#0067D4"/>
	<stop  offset="0.7579" style="stop-color:#0058B5"/>
	<stop  offset="0.8255" style="stop-color:#00448D"/>
	<stop  offset="0.8945" style="stop-color:#002C5B"/>
	<stop  offset="0.9633" style="stop-color:#001022"/>
	<stop  offset="1" style="stop-color:#000000"/>
</linearGradient>
<path class="st0" d="M17.7,52L45,24.7l5.6,5.6L23.3,57.7L17.7,52z"/>
<path class="st1" d="M34.1,6.8C15.3,6.8,0,22,0,40.9S15.3,75,34.1,75s34.1-15.3,34.1-34.1S52.9,6.8,34.1,6.8z M34.1,68.8
	c-15.4,0-27.9-12.5-27.9-27.9S18.7,13,34.1,13C49.5,13,62,25.5,62,40.9S49.5,68.8,34.1,68.8z"/>
<g>
	<polygon class="st2" points="90.1,66.8 97.4,57.9 97.4,56.3 87.4,56.3 87.4,58.2 94.5,58.2 94.5,58.3 87.1,67.2 87.1,68.9 
		97.5,68.9 97.5,66.9 90.1,66.9 	"/>
	<path class="st2" d="M108.8,62.3c0.2-0.1,0.4-0.2,0.5-0.2c0.1,0,0.2-0.1,0.5-0.3c0.6-0.5,0.9-1.2,0.9-2.2c0-0.8-0.3-1.5-0.9-2.2
		c-0.3-0.3-0.8-0.6-1.4-0.8c-0.6-0.2-1.4-0.3-2.2-0.3h-4.9v12.6h5.5c1.7,0,2.9-0.4,3.6-1.2c0.6-0.7,0.9-1.4,0.9-2.3
		c0-0.8-0.2-1.5-0.7-2C110.2,62.8,109.5,62.5,108.8,62.3z M103.4,58.2h2.7c0.8,0,1.4,0.1,1.7,0.4c0.4,0.3,0.6,0.7,0.6,1.3
		c0,1-0.8,1.6-2.3,1.6h-2.7V58.2z M108.5,66.5c-0.4,0.2-1,0.4-1.8,0.4h-3.3v-3.4h3.1c1.8,0,2.7,0.6,2.7,1.7
		C109.1,65.8,108.9,66.3,108.5,66.5z"/>
	<polygon class="st2" points="117.2,56.3 115.1,56.3 115.1,68.9 122.9,68.9 122.9,66.8 117.2,66.8 	"/>
	<path class="st2" d="M131.8,56c-1.9,0-3.4,0.6-4.7,1.9c-1.3,1.2-1.9,2.8-1.9,4.6c0,1.9,0.6,3.4,1.9,4.6c1.3,1.2,2.8,1.9,4.7,1.9
		c1.9,0,3.4-0.6,4.7-1.9c1.3-1.2,1.9-2.8,1.9-4.6c0-1.9-0.6-3.4-1.9-4.6C135.2,56.6,133.7,56,131.8,56z M134.9,65.7
		c-0.9,0.9-1.9,1.3-3.2,1.3s-2.3-0.4-3.2-1.3c-0.9-0.9-1.3-2-1.3-3.2c0-1.3,0.4-2.3,1.3-3.2c0.9-0.9,1.9-1.3,3.2-1.3
		s2.3,0.4,3.2,1.3c0.9,0.9,1.3,2,1.3,3.2C136.2,63.7,135.8,64.8,134.9,65.7z"/>
	<path class="st2" d="M162.8,58.1c0.7,0,1.3,0.1,1.9,0.3c0.5,0.2,1.1,0.6,1.7,1.2l1.3-1.5c-1.3-1.4-2.9-2.2-4.9-2.2
		c-2,0-3.6,0.6-4.8,1.9c-1.3,1.2-1.9,2.8-1.9,4.7c0,1.9,0.6,3.4,1.9,4.6c1.3,1.2,2.8,1.8,4.7,1.8c1.9,0,3.5-0.7,4.9-2.2l-1.4-1.4
		c-0.6,0.5-1.1,0.9-1.7,1.2s-1.2,0.4-1.9,0.4c-1.2,0-2.2-0.4-3.1-1.3c-0.9-0.9-1.3-1.9-1.3-3.2c0-1.3,0.4-2.3,1.3-3.2
		C160.4,58.5,161.5,58.1,162.8,58.1z"/>
	<polygon class="st2" points="180.6,65.7 173.3,56.3 171.2,56.3 171.2,68.9 173.3,68.9 173.3,59.7 180.5,68.9 182.8,68.9 
		182.8,56.3 180.6,56.3 	"/>
	<path class="st2" d="M188.1,66.3c-0.4,0-0.7,0.1-0.9,0.4c-0.3,0.3-0.4,0.6-0.4,0.9s0.1,0.7,0.4,1c0.3,0.3,0.6,0.4,0.9,0.4
		s0.7-0.1,1-0.4c0.3-0.3,0.4-0.6,0.4-1s-0.1-0.7-0.4-0.9C188.8,66.4,188.5,66.3,188.1,66.3z"/>
	<path class="st2" d="M199.4,58.1c0.7,0,1.3,0.1,1.9,0.3c0.5,0.2,1.1,0.6,1.7,1.2l1.3-1.5c-1.3-1.4-2.9-2.2-4.9-2.2
		c-2,0-3.6,0.6-4.8,1.9c-1.3,1.2-1.9,2.8-1.9,4.7c0,1.9,0.6,3.4,1.9,4.6c1.3,1.2,2.8,1.8,4.7,1.8s3.5-0.7,4.9-2.2l-1.4-1.4
		c-0.6,0.5-1.1,0.9-1.7,1.2s-1.2,0.4-1.9,0.4c-1.2,0-2.2-0.4-3.1-1.3c-0.9-0.9-1.3-1.9-1.3-3.2c0-1.3,0.4-2.3,1.3-3.2
		C197,58.5,198.1,58.1,199.4,58.1z"/>
	<path class="st2" d="M213.3,56c-1.9,0-3.4,0.6-4.7,1.9c-1.3,1.2-1.9,2.8-1.9,4.6c0,1.9,0.6,3.4,1.9,4.6c1.3,1.2,2.8,1.9,4.7,1.9
		c1.9,0,3.4-0.6,4.7-1.9c1.3-1.2,1.9-2.8,1.9-4.6c0-1.9-0.6-3.4-1.9-4.6C216.8,56.6,215.2,56,213.3,56z M216.5,65.7
		c-0.9,0.9-1.9,1.3-3.2,1.3s-2.3-0.4-3.2-1.3c-0.9-0.9-1.3-2-1.3-3.2c0-1.3,0.4-2.3,1.3-3.2c0.9-0.9,1.9-1.3,3.2-1.3
		s2.3,0.4,3.2,1.3c0.9,0.9,1.3,2,1.3,3.2C217.8,63.7,217.3,64.8,216.5,65.7z"/>
	<polygon class="st2" points="234.6,56.3 230.8,64.2 227,56.3 223.7,56.3 223.7,68.9 225.8,68.9 225.8,59 230.2,67.8 231.4,67.8 
		235.8,59 235.8,68.9 237.9,68.9 237.9,56.3 	"/>
	<path class="st2" d="M147.6,63.9h3.3v2.3c-0.8,0.5-1.8,0.8-3,0.8s-2.2-0.4-3.1-1.2c-0.8-0.8-1.3-1.9-1.3-3.2s0.4-2.4,1.3-3.2
		c0.9-0.8,1.9-1.2,3.2-1.2c0.7,0,1.2,0.1,1.7,0.2s1,0.5,1.5,0.9l1.1-1.6c-1.2-1.1-2.7-1.6-4.5-1.6c-1.8,0-3.4,0.6-4.6,1.9
		c-1.3,1.2-1.9,2.8-1.9,4.7c0,1.9,0.6,3.4,1.9,4.6c1.3,1.2,2.8,1.8,4.7,1.8c2.2,0,3.9-0.7,5.1-2v-3.1v-1.2v-1h-5.4V63.9z"/>
</g>
<g>
	<polygon class="st2" points="94.3,42.4 111.4,21.6 111.4,17.7 87.9,17.7 87.9,22.2 104.5,22.2 104.5,22.4 87.4,43.2 87.4,47.1 
		111.6,47.1 111.6,42.5 94.3,42.5 	"/>
	<rect x="113.6" y="32.3" class="st2" width="13.9" height="4.4"/>
	<path class="st2" d="M149.5,31.8c0.5-0.2,0.9-0.4,1-0.5c0.2-0.1,0.6-0.3,1.1-0.7c1.5-1.1,2.2-2.8,2.2-5.1c0-1.9-0.7-3.6-2-5.1
		c-0.7-0.8-1.8-1.5-3.2-1.9c-1.4-0.5-3.2-0.7-5.1-0.7h-11.4v29.4h12.9c4,0,6.8-0.9,8.5-2.7c1.4-1.6,2.1-3.4,2.1-5.4
		c0-1.8-0.5-3.4-1.6-4.6C152.8,33,151.4,32.2,149.5,31.8z M137,22.3h6.3c1.8,0,3.2,0.3,4,0.9c0.9,0.6,1.3,1.6,1.3,3
		c0,2.4-1.8,3.7-5.4,3.7H137V22.3z M149,41.6c-1,0.6-2.4,0.9-4.2,0.9H137v-8h7.1c4.2,0,6.3,1.3,6.3,3.9
		C150.4,40,149.9,41.1,149,41.6z"/>
	<polygon class="st2" points="164.2,17.7 159.2,17.7 159.2,47.1 177.6,47.1 177.6,42.4 164.2,42.4 	"/>
	<path class="st2" d="M193.2,17c-4.4,0-8,1.4-11,4.3s-4.5,6.5-4.5,10.8c0,4.3,1.5,7.9,4.5,10.8c3,2.9,6.6,4.3,11,4.3
		c4.4,0,8-1.4,11-4.3c3-2.9,4.5-6.5,4.5-10.8c0-4.3-1.5-7.9-4.5-10.8S197.6,17,193.2,17z M200.6,39.7c-2,2.1-4.5,3.1-7.4,3.1
		s-5.4-1-7.4-3.1c-2-2.1-3-4.6-3-7.5c0-3,1-5.5,3-7.5c2-2.1,4.5-3.1,7.4-3.1s5.4,1,7.4,3.1c2,2.1,3,4.6,3,7.5
		C203.6,35.1,202.6,37.6,200.6,39.7z"/>
	<path class="st2" d="M225.2,30.1v5h7.5v5.8c-1.9,1.2-4.2,1.8-7,1.8c-2.8,0-5.2-0.9-7.1-2.8c-2-1.9-2.9-4.4-2.9-7.5
		c0-3.1,1-5.6,3-7.6c2-1.9,4.5-2.9,7.5-2.9c1.5,0,2.9,0.2,4.1,0.6c1.2,0.4,2.3,1.1,3.5,2l2.6-3.8c-2.8-2.5-6.3-3.7-10.5-3.7
		s-7.8,1.5-10.8,4.4c-3,2.9-4.5,6.6-4.5,10.9c0,4.4,1.5,8,4.4,10.8c2.9,2.9,6.6,4.3,10.9,4.3c5.2,0,9.1-1.5,11.9-4.6v-7.8v-2.3v-2.7
		H225.2z"/>
</g>
<path class="st1" d="M50.9,30c0.5-0.7,0.9-1.5,0.9-2.5c0-2.2-1.8-4-4-4H20.5c-2.2,0-4,1.8-4,4s1.8,4,4,4h19.4
	c2.4,0.1,6.4,0.9,4.9,4.7l5.7-5.7c0.1-0.1,0.1,0,0.2-0.2L50.9,30L50.9,30z"/>
<path class="st3" d="M47.8,50.9H29.9c-1,0-7.9-0.2-5.9-5.1L17.7,52l0,0c-0.8,0.7-1.2,1.7-1.2,2.8c0,2.2,1.8,4,4,4h27.3
	c2.2,0,4-1.8,4-4S50,50.9,47.8,50.9z"/>
</svg>
